<mxfile host="Electron" modified="2024-03-26T12:49:16.199Z" agent="Mozilla/5.0 (Windows NT 10.0; Win64; x64) AppleWebKit/537.36 (KHTML, like Gecko) draw.io/21.6.8 Chrome/114.0.5735.289 Electron/25.5.0 Safari/537.36" etag="zZJOk9R3E53qV-NnDr32" version="21.6.8" type="device">
  <diagram name="Page-1" id="2ONFmOIFlzEDJKw0HAws">
    <mxGraphModel dx="2058" dy="1188" grid="1" gridSize="10" guides="1" tooltips="1" connect="1" arrows="1" fold="1" page="1" pageScale="1" pageWidth="850" pageHeight="1100" math="0" shadow="0">
      <root>
        <mxCell id="0" />
        <mxCell id="1" parent="0" />
        <mxCell id="Bj8-iBi2L4X_MbYvI5Nl-108" style="edgeStyle=orthogonalEdgeStyle;rounded=0;orthogonalLoop=1;jettySize=auto;html=1;" parent="1" source="Bj8-iBi2L4X_MbYvI5Nl-6" target="Bj8-iBi2L4X_MbYvI5Nl-62" edge="1">
          <mxGeometry relative="1" as="geometry" />
        </mxCell>
        <mxCell id="Bj8-iBi2L4X_MbYvI5Nl-6" value="Element" style="swimlane;fontStyle=0;childLayout=stackLayout;horizontal=1;startSize=26;fillColor=#fff2cc;horizontalStack=0;resizeParent=1;resizeParentMax=0;resizeLast=0;collapsible=1;marginBottom=0;whiteSpace=wrap;html=1;strokeColor=#d6b656;" parent="1" vertex="1">
          <mxGeometry x="340" y="110" width="140" height="104" as="geometry" />
        </mxCell>
        <mxCell id="Bj8-iBi2L4X_MbYvI5Nl-7" value="+ field: type" style="text;strokeColor=none;fillColor=none;align=left;verticalAlign=top;spacingLeft=4;spacingRight=4;overflow=hidden;rotatable=0;points=[[0,0.5],[1,0.5]];portConstraint=eastwest;whiteSpace=wrap;html=1;" parent="Bj8-iBi2L4X_MbYvI5Nl-6" vertex="1">
          <mxGeometry y="26" width="140" height="26" as="geometry" />
        </mxCell>
        <mxCell id="Bj8-iBi2L4X_MbYvI5Nl-8" value="+ field: type" style="text;strokeColor=none;fillColor=none;align=left;verticalAlign=top;spacingLeft=4;spacingRight=4;overflow=hidden;rotatable=0;points=[[0,0.5],[1,0.5]];portConstraint=eastwest;whiteSpace=wrap;html=1;" parent="Bj8-iBi2L4X_MbYvI5Nl-6" vertex="1">
          <mxGeometry y="52" width="140" height="26" as="geometry" />
        </mxCell>
        <mxCell id="Bj8-iBi2L4X_MbYvI5Nl-9" value="GlobalAttributes" style="text;strokeColor=#9673a6;fillColor=#e1d5e7;align=left;verticalAlign=top;spacingLeft=4;spacingRight=4;overflow=hidden;rotatable=0;points=[[0,0.5],[1,0.5]];portConstraint=eastwest;whiteSpace=wrap;html=1;" parent="Bj8-iBi2L4X_MbYvI5Nl-6" vertex="1">
          <mxGeometry y="78" width="140" height="26" as="geometry" />
        </mxCell>
        <mxCell id="14TQEK0HzTnOQkEtKg1r-2" style="edgeStyle=orthogonalEdgeStyle;rounded=0;orthogonalLoop=1;jettySize=auto;html=1;" edge="1" parent="1" source="Bj8-iBi2L4X_MbYvI5Nl-10" target="14TQEK0HzTnOQkEtKg1r-1">
          <mxGeometry relative="1" as="geometry" />
        </mxCell>
        <mxCell id="Bj8-iBi2L4X_MbYvI5Nl-10" value="FormControlAttributes" style="swimlane;fontStyle=0;childLayout=stackLayout;horizontal=1;startSize=26;fillColor=#e1d5e7;horizontalStack=0;resizeParent=1;resizeParentMax=0;resizeLast=0;collapsible=1;marginBottom=0;whiteSpace=wrap;html=1;strokeColor=#9673a6;" parent="1" vertex="1">
          <mxGeometry x="340" y="520" width="140" height="104" as="geometry" />
        </mxCell>
        <mxCell id="Bj8-iBi2L4X_MbYvI5Nl-11" value="+ field: type" style="text;strokeColor=none;fillColor=none;align=left;verticalAlign=top;spacingLeft=4;spacingRight=4;overflow=hidden;rotatable=0;points=[[0,0.5],[1,0.5]];portConstraint=eastwest;whiteSpace=wrap;html=1;" parent="Bj8-iBi2L4X_MbYvI5Nl-10" vertex="1">
          <mxGeometry y="26" width="140" height="26" as="geometry" />
        </mxCell>
        <mxCell id="Bj8-iBi2L4X_MbYvI5Nl-12" value="+ field: type" style="text;strokeColor=none;fillColor=none;align=left;verticalAlign=top;spacingLeft=4;spacingRight=4;overflow=hidden;rotatable=0;points=[[0,0.5],[1,0.5]];portConstraint=eastwest;whiteSpace=wrap;html=1;" parent="Bj8-iBi2L4X_MbYvI5Nl-10" vertex="1">
          <mxGeometry y="52" width="140" height="26" as="geometry" />
        </mxCell>
        <mxCell id="Bj8-iBi2L4X_MbYvI5Nl-13" value="+ field: type" style="text;strokeColor=none;fillColor=none;align=left;verticalAlign=top;spacingLeft=4;spacingRight=4;overflow=hidden;rotatable=0;points=[[0,0.5],[1,0.5]];portConstraint=eastwest;whiteSpace=wrap;html=1;" parent="Bj8-iBi2L4X_MbYvI5Nl-10" vertex="1">
          <mxGeometry y="78" width="140" height="26" as="geometry" />
        </mxCell>
        <mxCell id="Bj8-iBi2L4X_MbYvI5Nl-15" value="InputNumber" style="swimlane;fontStyle=0;childLayout=stackLayout;horizontal=1;startSize=26;fillColor=#d5e8d4;horizontalStack=0;resizeParent=1;resizeParentMax=0;resizeLast=0;collapsible=1;marginBottom=0;whiteSpace=wrap;html=1;strokeColor=#82b366;" parent="1" vertex="1">
          <mxGeometry x="640" y="440" width="140" height="182" as="geometry" />
        </mxCell>
        <mxCell id="Bj8-iBi2L4X_MbYvI5Nl-17" value="SetInteger()" style="text;strokeColor=none;fillColor=none;align=left;verticalAlign=top;spacingLeft=4;spacingRight=4;overflow=hidden;rotatable=0;points=[[0,0.5],[1,0.5]];portConstraint=eastwest;whiteSpace=wrap;html=1;" parent="Bj8-iBi2L4X_MbYvI5Nl-15" vertex="1">
          <mxGeometry y="26" width="140" height="26" as="geometry" />
        </mxCell>
        <mxCell id="Bj8-iBi2L4X_MbYvI5Nl-18" value="SetFloat()" style="text;strokeColor=none;fillColor=none;align=left;verticalAlign=top;spacingLeft=4;spacingRight=4;overflow=hidden;rotatable=0;points=[[0,0.5],[1,0.5]];portConstraint=eastwest;whiteSpace=wrap;html=1;" parent="Bj8-iBi2L4X_MbYvI5Nl-15" vertex="1">
          <mxGeometry y="52" width="140" height="26" as="geometry" />
        </mxCell>
        <mxCell id="Bj8-iBi2L4X_MbYvI5Nl-51" value="SetDouble()" style="text;strokeColor=none;fillColor=none;align=left;verticalAlign=top;spacingLeft=4;spacingRight=4;overflow=hidden;rotatable=0;points=[[0,0.5],[1,0.5]];portConstraint=eastwest;whiteSpace=wrap;html=1;" parent="Bj8-iBi2L4X_MbYvI5Nl-15" vertex="1">
          <mxGeometry y="78" width="140" height="26" as="geometry" />
        </mxCell>
        <mxCell id="Bj8-iBi2L4X_MbYvI5Nl-52" value="GetInteger()" style="text;strokeColor=none;fillColor=none;align=left;verticalAlign=top;spacingLeft=4;spacingRight=4;overflow=hidden;rotatable=0;points=[[0,0.5],[1,0.5]];portConstraint=eastwest;whiteSpace=wrap;html=1;" parent="Bj8-iBi2L4X_MbYvI5Nl-15" vertex="1">
          <mxGeometry y="104" width="140" height="26" as="geometry" />
        </mxCell>
        <mxCell id="Bj8-iBi2L4X_MbYvI5Nl-53" value="GetFloat()" style="text;strokeColor=none;fillColor=none;align=left;verticalAlign=top;spacingLeft=4;spacingRight=4;overflow=hidden;rotatable=0;points=[[0,0.5],[1,0.5]];portConstraint=eastwest;whiteSpace=wrap;html=1;" parent="Bj8-iBi2L4X_MbYvI5Nl-15" vertex="1">
          <mxGeometry y="130" width="140" height="26" as="geometry" />
        </mxCell>
        <mxCell id="Bj8-iBi2L4X_MbYvI5Nl-54" value="GetDouble()" style="text;strokeColor=none;fillColor=none;align=left;verticalAlign=top;spacingLeft=4;spacingRight=4;overflow=hidden;rotatable=0;points=[[0,0.5],[1,0.5]];portConstraint=eastwest;whiteSpace=wrap;html=1;" parent="Bj8-iBi2L4X_MbYvI5Nl-15" vertex="1">
          <mxGeometry y="156" width="140" height="26" as="geometry" />
        </mxCell>
        <mxCell id="Bj8-iBi2L4X_MbYvI5Nl-20" value="Select" style="swimlane;fontStyle=0;childLayout=stackLayout;horizontal=1;startSize=26;fillColor=#d5e8d4;horizontalStack=0;resizeParent=1;resizeParentMax=0;resizeLast=0;collapsible=1;marginBottom=0;whiteSpace=wrap;html=1;strokeColor=#82b366;" parent="1" vertex="1">
          <mxGeometry x="20" y="440" width="220" height="156" as="geometry" />
        </mxCell>
        <mxCell id="Bj8-iBi2L4X_MbYvI5Nl-21" value="SetSelectedOptionByValue()" style="text;strokeColor=none;fillColor=none;align=left;verticalAlign=top;spacingLeft=4;spacingRight=4;overflow=hidden;rotatable=0;points=[[0,0.5],[1,0.5]];portConstraint=eastwest;whiteSpace=wrap;html=1;" parent="Bj8-iBi2L4X_MbYvI5Nl-20" vertex="1">
          <mxGeometry y="26" width="220" height="26" as="geometry" />
        </mxCell>
        <mxCell id="Bj8-iBi2L4X_MbYvI5Nl-22" value="SetSelectedOptionByText()" style="text;strokeColor=none;fillColor=none;align=left;verticalAlign=top;spacingLeft=4;spacingRight=4;overflow=hidden;rotatable=0;points=[[0,0.5],[1,0.5]];portConstraint=eastwest;whiteSpace=wrap;html=1;" parent="Bj8-iBi2L4X_MbYvI5Nl-20" vertex="1">
          <mxGeometry y="52" width="220" height="26" as="geometry" />
        </mxCell>
        <mxCell id="Bj8-iBi2L4X_MbYvI5Nl-23" value="GetSelectedOption()" style="text;strokeColor=none;fillColor=none;align=left;verticalAlign=top;spacingLeft=4;spacingRight=4;overflow=hidden;rotatable=0;points=[[0,0.5],[1,0.5]];portConstraint=eastwest;whiteSpace=wrap;html=1;" parent="Bj8-iBi2L4X_MbYvI5Nl-20" vertex="1">
          <mxGeometry y="78" width="220" height="26" as="geometry" />
        </mxCell>
        <mxCell id="Bj8-iBi2L4X_MbYvI5Nl-104" value="GetSelectedOptions()" style="text;strokeColor=none;fillColor=none;align=left;verticalAlign=top;spacingLeft=4;spacingRight=4;overflow=hidden;rotatable=0;points=[[0,0.5],[1,0.5]];portConstraint=eastwest;whiteSpace=wrap;html=1;" parent="Bj8-iBi2L4X_MbYvI5Nl-20" vertex="1">
          <mxGeometry y="104" width="220" height="26" as="geometry" />
        </mxCell>
        <mxCell id="Bj8-iBi2L4X_MbYvI5Nl-105" value="GetAllOptions()" style="text;strokeColor=none;fillColor=none;align=left;verticalAlign=top;spacingLeft=4;spacingRight=4;overflow=hidden;rotatable=0;points=[[0,0.5],[1,0.5]];portConstraint=eastwest;whiteSpace=wrap;html=1;" parent="Bj8-iBi2L4X_MbYvI5Nl-20" vertex="1">
          <mxGeometry y="130" width="220" height="26" as="geometry" />
        </mxCell>
        <mxCell id="Bj8-iBi2L4X_MbYvI5Nl-25" value="TextElement" style="swimlane;fontStyle=0;childLayout=stackLayout;horizontal=1;startSize=26;fillColor=#d5e8d4;horizontalStack=0;resizeParent=1;resizeParentMax=0;resizeLast=0;collapsible=1;marginBottom=0;whiteSpace=wrap;html=1;strokeColor=#82b366;" parent="1" vertex="1">
          <mxGeometry x="640" y="980" width="140" height="104" as="geometry" />
        </mxCell>
        <mxCell id="Bj8-iBi2L4X_MbYvI5Nl-26" value="SetText()" style="text;strokeColor=none;fillColor=none;align=left;verticalAlign=top;spacingLeft=4;spacingRight=4;overflow=hidden;rotatable=0;points=[[0,0.5],[1,0.5]];portConstraint=eastwest;whiteSpace=wrap;html=1;" parent="Bj8-iBi2L4X_MbYvI5Nl-25" vertex="1">
          <mxGeometry y="26" width="140" height="26" as="geometry" />
        </mxCell>
        <mxCell id="Bj8-iBi2L4X_MbYvI5Nl-106" value="AppendText()" style="text;strokeColor=none;fillColor=none;align=left;verticalAlign=top;spacingLeft=4;spacingRight=4;overflow=hidden;rotatable=0;points=[[0,0.5],[1,0.5]];portConstraint=eastwest;whiteSpace=wrap;html=1;" parent="Bj8-iBi2L4X_MbYvI5Nl-25" vertex="1">
          <mxGeometry y="52" width="140" height="26" as="geometry" />
        </mxCell>
        <mxCell id="Bj8-iBi2L4X_MbYvI5Nl-27" value="GetText()" style="text;strokeColor=none;fillColor=none;align=left;verticalAlign=top;spacingLeft=4;spacingRight=4;overflow=hidden;rotatable=0;points=[[0,0.5],[1,0.5]];portConstraint=eastwest;whiteSpace=wrap;html=1;" parent="Bj8-iBi2L4X_MbYvI5Nl-25" vertex="1">
          <mxGeometry y="78" width="140" height="26" as="geometry" />
        </mxCell>
        <mxCell id="Bj8-iBi2L4X_MbYvI5Nl-31" value="InputDate" style="swimlane;fontStyle=0;childLayout=stackLayout;horizontal=1;startSize=26;fillColor=#d5e8d4;horizontalStack=0;resizeParent=1;resizeParentMax=0;resizeLast=0;collapsible=1;marginBottom=0;whiteSpace=wrap;html=1;strokeColor=#82b366;" parent="1" vertex="1">
          <mxGeometry x="640" y="640" width="140" height="78" as="geometry" />
        </mxCell>
        <mxCell id="Bj8-iBi2L4X_MbYvI5Nl-32" value="SetDate()" style="text;strokeColor=none;fillColor=none;align=left;verticalAlign=top;spacingLeft=4;spacingRight=4;overflow=hidden;rotatable=0;points=[[0,0.5],[1,0.5]];portConstraint=eastwest;whiteSpace=wrap;html=1;" parent="Bj8-iBi2L4X_MbYvI5Nl-31" vertex="1">
          <mxGeometry y="26" width="140" height="26" as="geometry" />
        </mxCell>
        <mxCell id="Bj8-iBi2L4X_MbYvI5Nl-33" value="GetDate()" style="text;strokeColor=none;fillColor=none;align=left;verticalAlign=top;spacingLeft=4;spacingRight=4;overflow=hidden;rotatable=0;points=[[0,0.5],[1,0.5]];portConstraint=eastwest;whiteSpace=wrap;html=1;" parent="Bj8-iBi2L4X_MbYvI5Nl-31" vertex="1">
          <mxGeometry y="52" width="140" height="26" as="geometry" />
        </mxCell>
        <mxCell id="Bj8-iBi2L4X_MbYvI5Nl-36" value="InputDateTime" style="swimlane;fontStyle=0;childLayout=stackLayout;horizontal=1;startSize=26;fillColor=#d5e8d4;horizontalStack=0;resizeParent=1;resizeParentMax=0;resizeLast=0;collapsible=1;marginBottom=0;whiteSpace=wrap;html=1;strokeColor=#82b366;" parent="1" vertex="1">
          <mxGeometry x="640" y="750" width="140" height="78" as="geometry" />
        </mxCell>
        <mxCell id="Bj8-iBi2L4X_MbYvI5Nl-37" value="SetDateTime()" style="text;strokeColor=none;fillColor=none;align=left;verticalAlign=top;spacingLeft=4;spacingRight=4;overflow=hidden;rotatable=0;points=[[0,0.5],[1,0.5]];portConstraint=eastwest;whiteSpace=wrap;html=1;" parent="Bj8-iBi2L4X_MbYvI5Nl-36" vertex="1">
          <mxGeometry y="26" width="140" height="26" as="geometry" />
        </mxCell>
        <mxCell id="Bj8-iBi2L4X_MbYvI5Nl-38" value="GetDateTime()" style="text;strokeColor=none;fillColor=none;align=left;verticalAlign=top;spacingLeft=4;spacingRight=4;overflow=hidden;rotatable=0;points=[[0,0.5],[1,0.5]];portConstraint=eastwest;whiteSpace=wrap;html=1;" parent="Bj8-iBi2L4X_MbYvI5Nl-36" vertex="1">
          <mxGeometry y="52" width="140" height="26" as="geometry" />
        </mxCell>
        <mxCell id="Bj8-iBi2L4X_MbYvI5Nl-41" value="InputCheckboxRadio" style="swimlane;fontStyle=0;childLayout=stackLayout;horizontal=1;startSize=26;fillColor=#d5e8d4;horizontalStack=0;resizeParent=1;resizeParentMax=0;resizeLast=0;collapsible=1;marginBottom=0;whiteSpace=wrap;html=1;strokeColor=#82b366;" parent="1" vertex="1">
          <mxGeometry x="640" y="870" width="140" height="78" as="geometry" />
        </mxCell>
        <mxCell id="Bj8-iBi2L4X_MbYvI5Nl-42" value="Check()" style="text;strokeColor=none;fillColor=none;align=left;verticalAlign=top;spacingLeft=4;spacingRight=4;overflow=hidden;rotatable=0;points=[[0,0.5],[1,0.5]];portConstraint=eastwest;whiteSpace=wrap;html=1;" parent="Bj8-iBi2L4X_MbYvI5Nl-41" vertex="1">
          <mxGeometry y="26" width="140" height="26" as="geometry" />
        </mxCell>
        <mxCell id="Bj8-iBi2L4X_MbYvI5Nl-43" value="Uncheck()" style="text;strokeColor=none;fillColor=none;align=left;verticalAlign=top;spacingLeft=4;spacingRight=4;overflow=hidden;rotatable=0;points=[[0,0.5],[1,0.5]];portConstraint=eastwest;whiteSpace=wrap;html=1;" parent="Bj8-iBi2L4X_MbYvI5Nl-41" vertex="1">
          <mxGeometry y="52" width="140" height="26" as="geometry" />
        </mxCell>
        <mxCell id="14TQEK0HzTnOQkEtKg1r-3" style="edgeStyle=orthogonalEdgeStyle;rounded=0;orthogonalLoop=1;jettySize=auto;html=1;" edge="1" parent="1" source="Bj8-iBi2L4X_MbYvI5Nl-46" target="Bj8-iBi2L4X_MbYvI5Nl-9">
          <mxGeometry relative="1" as="geometry" />
        </mxCell>
        <mxCell id="Bj8-iBi2L4X_MbYvI5Nl-46" value="GlobalAttributes" style="swimlane;fontStyle=0;childLayout=stackLayout;horizontal=1;startSize=26;fillColor=#e1d5e7;horizontalStack=0;resizeParent=1;resizeParentMax=0;resizeLast=0;collapsible=1;marginBottom=0;whiteSpace=wrap;html=1;strokeColor=#9673a6;" parent="1" vertex="1">
          <mxGeometry x="640" y="110" width="140" height="104" as="geometry" />
        </mxCell>
        <mxCell id="Bj8-iBi2L4X_MbYvI5Nl-47" value="GetId()" style="text;strokeColor=none;fillColor=none;align=left;verticalAlign=top;spacingLeft=4;spacingRight=4;overflow=hidden;rotatable=0;points=[[0,0.5],[1,0.5]];portConstraint=eastwest;whiteSpace=wrap;html=1;" parent="Bj8-iBi2L4X_MbYvI5Nl-46" vertex="1">
          <mxGeometry y="26" width="140" height="26" as="geometry" />
        </mxCell>
        <mxCell id="Bj8-iBi2L4X_MbYvI5Nl-48" value="+ field: type" style="text;strokeColor=none;fillColor=none;align=left;verticalAlign=top;spacingLeft=4;spacingRight=4;overflow=hidden;rotatable=0;points=[[0,0.5],[1,0.5]];portConstraint=eastwest;whiteSpace=wrap;html=1;" parent="Bj8-iBi2L4X_MbYvI5Nl-46" vertex="1">
          <mxGeometry y="52" width="140" height="26" as="geometry" />
        </mxCell>
        <mxCell id="Bj8-iBi2L4X_MbYvI5Nl-49" value="+ field: type" style="text;strokeColor=none;fillColor=none;align=left;verticalAlign=top;spacingLeft=4;spacingRight=4;overflow=hidden;rotatable=0;points=[[0,0.5],[1,0.5]];portConstraint=eastwest;whiteSpace=wrap;html=1;" parent="Bj8-iBi2L4X_MbYvI5Nl-46" vertex="1">
          <mxGeometry y="78" width="140" height="26" as="geometry" />
        </mxCell>
        <mxCell id="Bj8-iBi2L4X_MbYvI5Nl-92" style="edgeStyle=orthogonalEdgeStyle;rounded=0;orthogonalLoop=1;jettySize=auto;html=1;" parent="1" source="Bj8-iBi2L4X_MbYvI5Nl-62" target="Bj8-iBi2L4X_MbYvI5Nl-20" edge="1">
          <mxGeometry relative="1" as="geometry" />
        </mxCell>
        <mxCell id="Bj8-iBi2L4X_MbYvI5Nl-99" style="edgeStyle=orthogonalEdgeStyle;rounded=0;orthogonalLoop=1;jettySize=auto;html=1;" parent="1" source="Bj8-iBi2L4X_MbYvI5Nl-62" target="Bj8-iBi2L4X_MbYvI5Nl-15" edge="1">
          <mxGeometry relative="1" as="geometry" />
        </mxCell>
        <mxCell id="Bj8-iBi2L4X_MbYvI5Nl-100" style="edgeStyle=orthogonalEdgeStyle;rounded=0;orthogonalLoop=1;jettySize=auto;html=1;entryX=0;entryY=0.25;entryDx=0;entryDy=0;" parent="1" source="Bj8-iBi2L4X_MbYvI5Nl-62" target="Bj8-iBi2L4X_MbYvI5Nl-31" edge="1">
          <mxGeometry relative="1" as="geometry" />
        </mxCell>
        <mxCell id="Bj8-iBi2L4X_MbYvI5Nl-101" style="edgeStyle=orthogonalEdgeStyle;rounded=0;orthogonalLoop=1;jettySize=auto;html=1;entryX=0;entryY=0.25;entryDx=0;entryDy=0;" parent="1" source="Bj8-iBi2L4X_MbYvI5Nl-62" target="Bj8-iBi2L4X_MbYvI5Nl-36" edge="1">
          <mxGeometry relative="1" as="geometry" />
        </mxCell>
        <mxCell id="Bj8-iBi2L4X_MbYvI5Nl-102" style="edgeStyle=orthogonalEdgeStyle;rounded=0;orthogonalLoop=1;jettySize=auto;html=1;entryX=0;entryY=0.25;entryDx=0;entryDy=0;" parent="1" source="Bj8-iBi2L4X_MbYvI5Nl-62" target="Bj8-iBi2L4X_MbYvI5Nl-41" edge="1">
          <mxGeometry relative="1" as="geometry" />
        </mxCell>
        <mxCell id="Bj8-iBi2L4X_MbYvI5Nl-103" style="edgeStyle=orthogonalEdgeStyle;rounded=0;orthogonalLoop=1;jettySize=auto;html=1;entryX=0;entryY=0.25;entryDx=0;entryDy=0;" parent="1" source="Bj8-iBi2L4X_MbYvI5Nl-62" target="Bj8-iBi2L4X_MbYvI5Nl-25" edge="1">
          <mxGeometry relative="1" as="geometry" />
        </mxCell>
        <mxCell id="Bj8-iBi2L4X_MbYvI5Nl-62" value="FormControl" style="swimlane;fontStyle=0;childLayout=stackLayout;horizontal=1;startSize=26;fillColor=#fff2cc;horizontalStack=0;resizeParent=1;resizeParentMax=0;resizeLast=0;collapsible=1;marginBottom=0;whiteSpace=wrap;html=1;strokeColor=#d6b656;" parent="1" vertex="1">
          <mxGeometry x="340" y="324" width="140" height="146" as="geometry" />
        </mxCell>
        <mxCell id="Bj8-iBi2L4X_MbYvI5Nl-85" value="SendKeystrokes()" style="text;strokeColor=none;fillColor=none;align=left;verticalAlign=middle;spacingLeft=4;spacingRight=4;overflow=hidden;points=[[0,0.5],[1,0.5]];portConstraint=eastwest;rotatable=0;whiteSpace=wrap;html=1;" parent="Bj8-iBi2L4X_MbYvI5Nl-62" vertex="1">
          <mxGeometry y="26" width="140" height="30" as="geometry" />
        </mxCell>
        <mxCell id="Bj8-iBi2L4X_MbYvI5Nl-86" value="Clear()" style="text;strokeColor=none;fillColor=none;align=left;verticalAlign=middle;spacingLeft=4;spacingRight=4;overflow=hidden;points=[[0,0.5],[1,0.5]];portConstraint=eastwest;rotatable=0;whiteSpace=wrap;html=1;" parent="Bj8-iBi2L4X_MbYvI5Nl-62" vertex="1">
          <mxGeometry y="56" width="140" height="30" as="geometry" />
        </mxCell>
        <mxCell id="Bj8-iBi2L4X_MbYvI5Nl-97" value="WithoutRobustSetter()" style="text;strokeColor=none;fillColor=none;align=left;verticalAlign=middle;spacingLeft=4;spacingRight=4;overflow=hidden;points=[[0,0.5],[1,0.5]];portConstraint=eastwest;rotatable=0;whiteSpace=wrap;html=1;" parent="Bj8-iBi2L4X_MbYvI5Nl-62" vertex="1">
          <mxGeometry y="86" width="140" height="30" as="geometry" />
        </mxCell>
        <mxCell id="14TQEK0HzTnOQkEtKg1r-1" value="Attributes" style="text;strokeColor=#9673a6;fillColor=#e1d5e7;align=left;verticalAlign=middle;spacingLeft=4;spacingRight=4;overflow=hidden;points=[[0,0.5],[1,0.5]];portConstraint=eastwest;rotatable=0;whiteSpace=wrap;html=1;" vertex="1" parent="Bj8-iBi2L4X_MbYvI5Nl-62">
          <mxGeometry y="116" width="140" height="30" as="geometry" />
        </mxCell>
        <mxCell id="14TQEK0HzTnOQkEtKg1r-4" style="edgeStyle=orthogonalEdgeStyle;rounded=0;orthogonalLoop=1;jettySize=auto;html=1;" edge="1" parent="1" source="Bj8-iBi2L4X_MbYvI5Nl-109" target="Bj8-iBi2L4X_MbYvI5Nl-6">
          <mxGeometry relative="1" as="geometry" />
        </mxCell>
        <mxCell id="Bj8-iBi2L4X_MbYvI5Nl-109" value="FetchContext" style="swimlane;fontStyle=0;childLayout=stackLayout;horizontal=1;startSize=26;fillColor=#d5e8d4;horizontalStack=0;resizeParent=1;resizeParentMax=0;resizeLast=0;collapsible=1;marginBottom=0;whiteSpace=wrap;html=1;strokeColor=#82b366;" parent="1" vertex="1">
          <mxGeometry x="20" y="110" width="140" height="104" as="geometry" />
        </mxCell>
        <mxCell id="Bj8-iBi2L4X_MbYvI5Nl-110" value="+ field: type" style="text;strokeColor=none;fillColor=none;align=left;verticalAlign=top;spacingLeft=4;spacingRight=4;overflow=hidden;rotatable=0;points=[[0,0.5],[1,0.5]];portConstraint=eastwest;whiteSpace=wrap;html=1;" parent="Bj8-iBi2L4X_MbYvI5Nl-109" vertex="1">
          <mxGeometry y="26" width="140" height="26" as="geometry" />
        </mxCell>
        <mxCell id="Bj8-iBi2L4X_MbYvI5Nl-111" value="+ field: type" style="text;strokeColor=none;fillColor=none;align=left;verticalAlign=top;spacingLeft=4;spacingRight=4;overflow=hidden;rotatable=0;points=[[0,0.5],[1,0.5]];portConstraint=eastwest;whiteSpace=wrap;html=1;" parent="Bj8-iBi2L4X_MbYvI5Nl-109" vertex="1">
          <mxGeometry y="52" width="140" height="26" as="geometry" />
        </mxCell>
        <mxCell id="Bj8-iBi2L4X_MbYvI5Nl-112" value="+ field: type" style="text;strokeColor=none;fillColor=none;align=left;verticalAlign=top;spacingLeft=4;spacingRight=4;overflow=hidden;rotatable=0;points=[[0,0.5],[1,0.5]];portConstraint=eastwest;whiteSpace=wrap;html=1;" parent="Bj8-iBi2L4X_MbYvI5Nl-109" vertex="1">
          <mxGeometry y="78" width="140" height="26" as="geometry" />
        </mxCell>
        <mxCell id="Bj8-iBi2L4X_MbYvI5Nl-114" value="ConditionalFetchContext" style="swimlane;fontStyle=0;childLayout=stackLayout;horizontal=1;startSize=26;fillColor=#f8cecc;horizontalStack=0;resizeParent=1;resizeParentMax=0;resizeLast=0;collapsible=1;marginBottom=0;whiteSpace=wrap;html=1;strokeColor=#b85450;" parent="1" vertex="1">
          <mxGeometry x="20" y="260" width="170" height="104" as="geometry" />
        </mxCell>
        <mxCell id="Bj8-iBi2L4X_MbYvI5Nl-115" value="+ field: type" style="text;strokeColor=none;fillColor=none;align=left;verticalAlign=top;spacingLeft=4;spacingRight=4;overflow=hidden;rotatable=0;points=[[0,0.5],[1,0.5]];portConstraint=eastwest;whiteSpace=wrap;html=1;" parent="Bj8-iBi2L4X_MbYvI5Nl-114" vertex="1">
          <mxGeometry y="26" width="170" height="26" as="geometry" />
        </mxCell>
        <mxCell id="Bj8-iBi2L4X_MbYvI5Nl-116" value="+ field: type" style="text;strokeColor=none;fillColor=none;align=left;verticalAlign=top;spacingLeft=4;spacingRight=4;overflow=hidden;rotatable=0;points=[[0,0.5],[1,0.5]];portConstraint=eastwest;whiteSpace=wrap;html=1;" parent="Bj8-iBi2L4X_MbYvI5Nl-114" vertex="1">
          <mxGeometry y="52" width="170" height="26" as="geometry" />
        </mxCell>
        <mxCell id="Bj8-iBi2L4X_MbYvI5Nl-117" value="+ field: type" style="text;strokeColor=none;fillColor=none;align=left;verticalAlign=top;spacingLeft=4;spacingRight=4;overflow=hidden;rotatable=0;points=[[0,0.5],[1,0.5]];portConstraint=eastwest;whiteSpace=wrap;html=1;" parent="Bj8-iBi2L4X_MbYvI5Nl-114" vertex="1">
          <mxGeometry y="78" width="170" height="26" as="geometry" />
        </mxCell>
      </root>
    </mxGraphModel>
  </diagram>
</mxfile>
